Coordinates
version=1
nRows=10
nColumns=40
inDegrees=yes

Units are S.I. units (second, meters, Newtons, ...)
Angles are in degrees.

endheader
time	pelvis_tilt	pelvis_list	pelvis_rotation	pelvis_tx	pelvis_ty	pelvis_tz	hip_flexion_r	hip_adduction_r	hip_rotation_r	knee_angle_r	knee_angle_r_beta	ankle_angle_r	subtalar_angle_r	mtp_angle_r	hip_flexion_l	hip_adduction_l	hip_rotation_l	knee_angle_l	knee_angle_l_beta	ankle_angle_l	subtalar_angle_l	mtp_angle_l	lumbar_extension	lumbar_bending	lumbar_rotation	arm_flex_r	arm_add_r	arm_rot_r	elbow_flex_r	pro_sup_r	wrist_flex_r	wrist_dev_r	arm_flex_l	arm_add_l	arm_rot_l	elbow_flex_l	pro_sup_l	wrist_flex_l	wrist_dev_l
      8.91000000	     -4.00241250	     -3.47635186	      4.66393444	      0.87469923	      0.91755416	      0.44915089	     -1.45785571	      0.25367140	    -15.36934398	     24.87618419	     24.87618419	     17.69610979	     -5.94961196	     -5.41548998	     27.84447446	     -3.12872575	     -4.44884870	     25.20170095	     25.20170095	      4.97485429	    -16.31809508	      3.85929035	     -5.52211874	      3.96086791	      4.21079100	     30.90688510	    -15.85362727	     -9.58349373	     74.86882122	     45.05949825	      0.00000000	      0.00000000	     -7.58604216	     -7.11929165	      3.88108821	     24.51875335	     44.98466064	      0.00000000	      0.00000000
      8.92200000	     -4.09658365	     -3.36298613	      4.39966940	      0.87540629	      0.91894596	      0.44755101	      0.17381038	     -0.48082936	    -14.82132207	     28.56919656	     28.56919656	     16.33971101	     -7.83049136	     -6.41261056	     27.17802920	     -3.05540562	     -4.82287810	     24.96877369	     24.96877369	      5.58000651	    -16.04708478	      3.55106998	     -5.47641645	      3.81268664	      4.08605693	     29.45508258	    -15.74983585	     -9.28188378	     74.55975201	     45.05741571	      0.00000000	      0.00000000	     -6.53033905	     -7.22533634	      3.81201262	     24.65299074	     45.02782260	      0.00000000	      0.00000000
      8.93400000	     -4.11161280	     -3.24112510	      4.13621456	      0.87598734	      0.92036119	      0.44604298	      1.91121379	     -1.21671757	    -14.27076550	     32.50662672	     32.50662672	     14.74081893	     -9.79169167	     -7.29294586	     26.40002121	     -2.98888810	     -5.25515047	     24.67919451	     24.67919451	      6.11033334	    -15.72326111	      3.19517995	     -5.53671814	      3.65135781	      3.94582733	     27.97951824	    -15.64534683	     -8.93875147	     74.20124439	     45.05520372	      0.00000000	      0.00000000	     -5.40254330	     -7.36954984	      3.72187571	     24.86705674	     45.07447364	      0.00000000	      0.00000000
      8.94600000	     -4.07704109	     -3.10891305	      3.88422484	      0.87638777	      0.92166683	      0.44465094	      3.77508523	     -1.95404077	    -13.71167113	     36.64616577	     36.64616577	     13.02244913	    -11.68764982	     -7.87256818	     25.57151366	     -2.91128048	     -5.68346929	     24.36854468	     24.36854468	      6.61330351	    -15.38646922	      2.79158441	     -5.71072884	      3.47762391	      3.76144700	     26.49631048	    -15.48161566	     -8.56717409	     73.75829370	     45.05401067	      0.00000000	      0.00000000	     -4.20720336	     -7.54881114	      3.62114776	     25.20451736	     45.12115606	      0.00000000	      0.00000000
      8.95800000	     -4.07943121	     -2.98121518	      3.62479587	      0.87656474	      0.92273581	      0.44337043	      5.82010040	     -2.64533809	    -13.09328945	     40.85733078	     40.85733078	     11.21106076	    -13.55103344	     -8.10187933	     24.80243282	     -2.83741794	     -6.16217652	     24.05288549	     24.05288549	      7.04670812	    -15.08072639	      2.35196481	     -5.83490924	      3.31852961	      3.57833290	     24.93893721	    -15.34180305	     -8.16858369	     73.22189396	     45.05452275	      0.00000000	      0.00000000	     -3.00609955	     -7.78434334	      3.49384996	     25.64029498	     45.17065114	      0.00000000	      0.00000000
      8.97000000	     -4.05438040	     -2.86735904	      3.38049010	      0.87661969	      0.92362086	      0.44220527	      7.93140231	     -3.26518566	    -12.45218023	     45.06064993	     45.06064993	      9.47644279	    -15.21999015	     -7.94647261	     24.03914950	     -2.76977937	     -6.56773316	     23.77220243	     23.77220243	      7.44448966	    -14.78989557	      1.86596374	     -5.99055471	      3.17988793	      3.39493043	     23.32656972	    -15.20231642	     -7.74479106	     72.59141236	     45.05697677	      0.00000000	      0.00000000	     -1.76766388	     -8.05321748	      3.34297909	     26.19252682	     45.22300401	      0.00000000	      0.00000000
      8.98200000	     -4.02544858	     -2.84346358	      3.14667136	      0.87651250	      0.92428762	      0.44114852	     10.14809502	     -3.67680038	    -11.72088613	     49.22503716	     49.22503716	      8.21197476	    -16.59760203	     -6.23898918	     23.35148962	     -2.81300027	     -6.96879818	     23.58074144	     23.58074144	      7.60389456	    -14.57254962	      0.79341184	     -6.13365295	      3.17003059	      3.48500567	     21.48747930	    -15.43535648	     -7.07262672	     71.79370318	     45.06261112	      0.00000000	      0.00000000	     -0.42925208	     -8.30539965	      2.94751532	     27.15882629	     45.32578648	      0.00000000	      0.00000000
      8.99400000	     -3.94467724	     -2.61835863	      2.91574936	      0.87627907	      0.92487910	      0.43997936	     12.30676384	     -4.39428735	    -11.17091283	     53.19985536	     53.19985536	      6.97486070	    -17.34869464	     -5.53037097	     22.57492157	     -2.59924551	     -7.33623175	     23.34346439	     23.34346439	      7.95350212	    -14.42887972	      0.42370845	     -6.39985647	      2.95344345	      3.06135613	     19.95422831	    -15.04091005	     -6.69828001	     71.08822450	     45.06906649	      0.00000000	      0.00000000	      0.78498651	     -8.67965670	      2.79617498	     27.77717207	     45.37387941	      0.00000000	      0.00000000
      9.00600000	     -3.87872190	     -2.55324860	      2.72193646	      0.87594017	      0.92531137	      0.43898120	     14.68820477	     -4.72501840	    -10.41023631	     57.31203650	     57.31203650	      7.98335603	    -17.16706481	      1.47051546	     21.86806973	     -2.54388220	     -7.56812456	     23.11296578	     23.11296578	      7.86091018	    -14.53109704	     -0.99033371	     -6.60045779	      2.93034797	      2.72395620	     18.47702760	    -14.88883096	     -5.91977653	     69.62439149	     45.10936968	      0.00000000	      0.00000000	      1.77009904	     -9.05280528	      2.08436536	     29.46859845	     45.52980675	      0.00000000	      0.00000000
      9.01800000	     -3.68740226	     -2.42850560	      2.58612873	      0.87562349	      0.92590459	      0.43784303	     16.60034069	     -5.18951630	     -9.95663979	     60.47792191	     60.47792191	      6.93302419	    -17.75281086	      1.59194810	     21.08892728	     -2.39808619	     -7.72428478	     23.03853912	     23.03853912	      8.29545627	    -14.48370305	     -1.18103674	     -6.97209580	      2.87522013	      2.32740654	     16.83292661	    -14.44622864	     -5.57450619	     68.76761990	     45.11981168	      0.00000000	      0.00000000	      3.22798206	     -9.47478664	      1.97467275	     30.11217890	     45.57109845	      0.00000000	      0.00000000
